<svg xmlns="http://www.w3.org/2000/svg" viewBox="0 0 200 200"><path fill="#0071bc" d="M25 25h150v150H25z"/><path d="M141.8 145.9c-3.7.2-7.2-1.1-9.9-3.6-2.5-2.5-3.9-5.9-3.8-9.4-.1-3.6 1.3-7.2 3.9-9.7 2.8-2.6 6.5-4 10.3-3.8 2.1 0 4.1.3 6.1 1.1 2 .9 3.8 2.2 5.2 3.9l9.4-5.2c-2.2-3.2-5.2-5.9-8.8-7.6-3.8-1.8-7.9-2.7-12.1-2.7-4.6-.1-9.1 1-13.2 3.1-3.7 1.9-6.8 4.8-9 8.3v-10h-11v4.7c-1.9-2-4.2-3.5-6.7-4.6-2.4-1-5-1.5-7.7-1.5-3.8 0-7.5 1-10.6 3l4-10.9c1.6-.3 3.2-.8 4.7-1.5 2.7-1.4 4.9-3.4 6.6-5.9.7 1 1.4 1.9 2.3 2.7 4.3 4.3 9.8 6.4 16.6 6.4 3.9.1 7.8-.7 11.3-2.3 3.3-1.7 6.1-4.1 8.2-7.2l-9.1-4.3c-2.8 2.8-6.6 4.3-10.5 4.3-3 .2-6-.8-8.4-2.6-2.2-1.8-3.6-4.4-4-7.2h34.8v-2.2c0-7.2-2.1-13-6.4-17.3s-9.8-6.6-16.6-6.6c-6-.2-11.8 2.2-16 6.5-2.1 2.1-3.7 4.7-4.8 7.5-1.6-1.3-3.3-2.4-5.2-3.3 2-1.4 3.6-3.2 4.8-5.3 1-2 1.5-4.1 1.5-6.3.1-3.4-1.1-6.7-3.2-9.3-2.2-2.7-5.3-4.7-8.7-5.5-4-.9-8.1-1.3-12.2-1.2H64v61h11.8l-12.9 36.1-15.3-43.2H35.7l21.6 61h11.2l5.8-16.2c.9 3.9 2.9 7.5 5.6 10.4 3.8 4.3 9.4 6.8 15.1 6.8 2.5 0 5-.5 7.3-1.4 2.5-1 4.8-2.6 6.7-4.6v5h11V145c1 1.5 2.1 2.9 3.3 4.2 4.5 4.7 10.7 7 18.7 7 8.8 0 15.6-3.1 20.5-9.4l-8.9-6.1c-2.8 3.5-6.8 5.2-11.8 5.2zm-31.7-77c2.3-1.7 5.1-2.6 8-2.5 2.6-.1 5.2.7 7.3 2.2 2 1.5 3.4 3.5 4.2 5.8H106c1.3-2.1 2.6-4.5 4.1-5.5zM76 51.3h2.6c2.2-.1 4.3.5 6 1.9 1.3 1.2 2.1 2.9 2 4.6.1 1.8-.7 3.6-2.1 4.8-1.4 1.2-3.5 1.7-6.3 1.7H76v-13zm2.5 39H76v-15h2c4.6 0 7.8.6 9.8 2.1 2 1.4 3.1 3.7 3 6.1.1 2-.8 4-2.5 5.1-1.7 1.3-4.9 1.7-9.8 1.7zm27 52.9l-5.5-3.3v6.5h-8v-6.5l-5.8 3.3-3.9-6.6 5.8-3.3-5.7-3.3 3.9-6.6 5.8 3.3v-6.3h8v6.3l5.5-3.3 3.6 6.6-5.7 3.3 5.8 3.3-3.8 6.6z" fill="#fff"/></svg>
