<svg id="Layer_1" data-name="Layer 1" xmlns="http://www.w3.org/2000/svg" xmlns:xlink="http://www.w3.org/1999/xlink" viewBox="0 0 800 800"><defs><style>.cls-7{fill:#fafdff;stroke:#fdfdfd;stroke-width:.74px}</style><linearGradient id="linear-gradient" x1="748.14" y1="911.6" x2="748.14" y2="780.43" gradientTransform="matrix(.97 0 0 .97 9.43 -425.79)" gradientUnits="userSpaceOnUse"><stop offset="0" stop-color="#c81e6b"/><stop offset="1" stop-color="#f49ac1"/></linearGradient><linearGradient id="linear-gradient-2" x1="448.56" y1="908.37" x2="448.56" y2="783.45" gradientTransform="matrix(.97 0 0 .97 9.43 -425.79)" gradientUnits="userSpaceOnUse"><stop offset="0" stop-color="#c95427"/><stop offset="1" stop-color="#f9a870"/></linearGradient><linearGradient id="linear-gradient-3" x1="70.53" y1="908.48" x2="70.53" y2="783.55" xlink:href="#linear-gradient"/><linearGradient id="linear-gradient-4" x1="324.83" y1="908.48" x2="324.83" y2="783.55" xlink:href="#linear-gradient"/><linearGradient id="linear-gradient-5" x1="621.89" y1="908.48" x2="621.89" y2="783.55" xlink:href="#linear-gradient-2"/><linearGradient id="linear-gradient-6" x1="196.9" y1="911.6" x2="196.9" y2="780.43" xlink:href="#linear-gradient-2"/></defs><path d="M793 355.66l-9.33 8.87a68.69 68.69 0 0 0-21.94-15.17 57.08 57.08 0 0 0-23.34-5.13 54.85 54.85 0 0 0-26.84 7 50.54 50.54 0 0 0-19.84 19.14 49.76 49.76 0 0 0-7 25.44 52.53 52.53 0 0 0 7.23 26.14 55.08 55.08 0 0 0 19.84 19.6 58 58 0 0 0 28 7c12.14 0 22.64-3.73 31.27-10.74s13.54-16.1 15.17-27.54h-93.57V398.6H800c0 18.9-5.6 33.61-16.57 44.57-11 11.2-25.44 16.57-43.64 16.57-22.17 0-39.67-7.7-52.51-22.87A61.31 61.31 0 0 1 672.35 396a64.63 64.63 0 0 1 8.65-32.18 58.48 58.48 0 0 1 23.34-23.1c10-5.6 21-8.4 33.84-8.4a73.21 73.21 0 0 1 28.7 5.6c8.85 3.5 17.48 9.57 26.12 17.74z" fill="url(#linear-gradient)" stroke-width="1.49" stroke="#df598e"/><path d="M382.5 347v-11.9h99.88l-50.87 109.47h76.31v11.9H412.6l51.34-109.68-81.44.21z" fill="url(#linear-gradient-2)" stroke="#e98147" stroke-width="1.49"/><path d="M0 456.71l19.84-121.59h2.33l56 99.42 55.54-99.42h2.33l19.84 121.35h-13.52l-13.54-86.81-49 87h-3.74l-49-87.51-13.78 87.56z" fill="url(#linear-gradient-3)" stroke-width="1.49" stroke="#df598e"/><path d="M247.14 456.71L267 335.35h2.33l56 99.42 55.31-99.42H383l19.8 121.36h-13.54l-13.54-86.81L327 456.71h-3.73L274 369.19l-13.54 87.51z" fill="url(#linear-gradient-4)" stroke-width="1.49" stroke="#df598e"/><path d="M557.29 456.71V335.12h3.27L655.78 428v-92.88h14v121.35h-3.27L572 364.76v91.72l-14.7.23z" fill="url(#linear-gradient-5)" stroke="#e98147" stroke-width="1.49"/><path d="M199.77 332.32c18.44 0 33.84 6.07 46.21 18.44s18.67 27.54 18.67 45.27-6.07 32.91-18.67 45a61.68 61.68 0 0 1-45 18.67c-18 0-33.14-6.07-45.51-18.67a60.64 60.64 0 0 1-18.67-44.57 65.27 65.27 0 0 1 8.4-32.44 60 60 0 0 1 23.1-23.34c9.53-5.79 20.03-8.36 31.47-8.36zm.47 11.67a50.59 50.59 0 0 0-25.67 7 52.42 52.42 0 0 0-18.9 18.9c-4.67 7.93-6.77 16.8-6.77 26.6 0 14.47 4.9 26.6 14.94 36.41a48.82 48.82 0 0 0 35.94 14.94 52.55 52.55 0 0 0 26.14-6.77 50.68 50.68 0 0 0 18.9-18.9 53.67 53.67 0 0 0 6.77-26.6 51.92 51.92 0 0 0-6.77-26.14A52.28 52.28 0 0 0 200.23 344z" fill="url(#linear-gradient-6)" stroke="#e98147" stroke-width="1.49"/><path class="cls-7" d="M511.79 359.62c-11.44-.93-24.74 0-35.94-2.1L456 353.79s7.23-.23 17-.23c9.8-.23 22.87-3.27 32.44-3.5h4c1.17 0 15.4-.47 17.74-.23L534 351c14.7 13.07 30.81 30.81 1.63 45.27l1.4-31-2.1-.7s-.23 20.54-.7 46.21-1.23 52.22-1.44 57.36a11.25 11.25 0 0 1-3.5 6.53 29.27 29.27 0 0 1-3.27 2.8s-1.17-11.67-2.33-25.44c-1.17-13.54-2.57-29.4-2.8-37.81-.23-6.77-4-10-7.7-11.44a19.29 19.29 0 0 0-7.23-1.17c-4 0-8.17.23-11.67.47s-5.6.7-5.37 1.4c0 .23 4.2 3.5 9.1 7 4.43 3.73 9.8 7.7 11.67 10a21.53 21.53 0 0 1 3.27 7c.7 2.33 1.17 4 1.17 4s-8.87-5.83-18-11.9-18.44-12.14-19.37-12.84a7.11 7.11 0 0 1-2.57-4.9c0-2.1 1.4-4.67 6.53-6.53a72.66 72.66 0 0 1 15.64-3.73c5.37-.7 11.44-1.17 18.44-1.4z"/><circle class="cls-7" cx="520.65" cy="333.49" r="10.97"/><path d="M543.76 382.73c-1.17 7-5.83 10.5-10.74 9.57-4.67-.7-7.47-5.37-6.3-12.37s5.83-10.5 10.74-9.57c4.66.93 7.46 5.64 6.3 12.37z" stroke="#231f20" stroke-width="1.11" fill="#f9a870"/><path d="M543.76 368.49c-.7 3.73-4 7.7-7.7 7.23-3.73-.7-6.07-5.6-5.37-9.57a6.47 6.47 0 0 1 7.7-5.37c3.27.48 5.83 4.22 5.37 7.71z" fill="#f49ac1" stroke="#231f20" stroke-width="1.11"/></svg>