<svg id="svg-menu" xmlns="http://www.w3.org/2000/svg" viewBox="0 0 800 800"><defs><style>.cls-1{fill:#fff}.cls-2{fill:#f33}</style></defs><g id="svg-home"><path class="cls-1" d="M607 505.13a8.83 8.83 0 0 1 2.75-6.45 9.44 9.44 0 0 1 7-2.75 10.14 10.14 0 0 1 7.09 2.62 9 9 0 0 1 .44 12.72q-.21.23-.44.44a10.14 10.14 0 0 1-7.09 2.62 9.43 9.43 0 0 1-7-2.75 8.82 8.82 0 0 1-2.75-6.45zM566.43 408.1h-39.86V388H627v20.1h-38.32V513h-22.25z"/><path class="cls-1" d="M415.17 388h29.49l60.57 92.88h.35V388h22.25v125h-28.25l-61.8-95.88h-.35V513h-22.26zM382.58 388h22.25v125h-22.25z"/><path class="cls-2" d="M330.16 255.57h26l53.5 82h.34v-82h19.65V366h-25l-54.53-84.7h-.31V366h-19.65zM175.67 255h61.77a123.91 123.91 0 0 1 25.56 2.6 63.1 63.1 0 0 1 21.67 8.69 44.67 44.67 0 0 1 14.92 16.35q5.58 10.26 5.58 25.56 0 17.39-6 28a42.71 42.71 0 0 1-16.09 16.48 67.22 67.22 0 0 1-23.49 7.92 181.31 181.31 0 0 1-27.9 2.08h-23.32v150.75h-32.7zm52.43 79.67q7 0 14.53-.52a44.59 44.59 0 0 0 13.89-3.15 24.63 24.63 0 0 0 10.38-7.79q4-5.19 4-14.53 0-8.56-3.63-13.63a24.12 24.12 0 0 0-9.34-7.79 39.45 39.45 0 0 0-12.72-3.5 122.27 122.27 0 0 0-13.49-.78h-23.35v51.65z"/><path class="cls-2" d="M295.3 255.57H315V418.7h-19.7z"/><path class="cls-1" d="M219.82 455.45a91.62 91.62 0 0 1 6.26-34.52 77.47 77.47 0 0 1 17.32-26.48 75.94 75.94 0 0 1 26.37-16.87 92.49 92.49 0 0 1 33.63-5.92 94 94 0 0 1 34 5.48 74.28 74.28 0 0 1 26.6 16.65 76.94 76.94 0 0 1 17.43 26.37 90.81 90.81 0 0 1 6.26 34.41 87.86 87.86 0 0 1-6.26 33.74A77.38 77.38 0 0 1 364 514.45a79.59 79.59 0 0 1-26.59 17.09 94.11 94.11 0 0 1-34 6.37 92.55 92.55 0 0 1-33.65-5.91 75.4 75.4 0 0 1-43.69-42.79 87.81 87.81 0 0 1-6.25-33.76zm29.5-1.79a68 68 0 0 0 3.91 23.46 55 55 0 0 0 11.06 18.55A51.42 51.42 0 0 0 281.38 508a53.58 53.58 0 0 0 22.23 4.47A54.37 54.37 0 0 0 326 508a51.15 51.15 0 0 0 17.21-12.29 55.12 55.12 0 0 0 11.06-18.55 68 68 0 0 0 3.91-23.46 61.74 61.74 0 0 0-3.91-22.12 54.86 54.86 0 0 0-11.06-18A50.6 50.6 0 0 0 326 401.49a55.63 55.63 0 0 0-22.34-4.36 54.81 54.81 0 0 0-22.23 4.36 50.85 50.85 0 0 0-17.1 12.07 54.76 54.76 0 0 0-11.06 18 61.67 61.67 0 0 0-4 22.11z"/><path class="cls-2" d="M261.77 455.12a45.81 45.81 0 0 1 3.13-17.26 38.73 38.73 0 0 1 8.66-13.24 38 38 0 0 1 13.18-8.43 46.24 46.24 0 0 1 16.81-3 47 47 0 0 1 17 2.74 37.14 37.14 0 0 1 13.3 8.32 38.47 38.47 0 0 1 8.71 13.18 45.4 45.4 0 0 1 3.13 17.21 43.93 43.93 0 0 1-3.13 16.87 38.69 38.69 0 0 1-8.71 13.07 39.79 39.79 0 0 1-13.3 8.55 47.05 47.05 0 0 1-17 3.18 46.27 46.27 0 0 1-16.81-3A37.7 37.7 0 0 1 264.9 472a43.9 43.9 0 0 1-3.13-16.88zm14.75-.89a34 34 0 0 0 2 11.73 27.51 27.51 0 0 0 5.53 9.27 25.71 25.71 0 0 0 8.55 6.14 26.79 26.79 0 0 0 11.12 2.23 27.19 27.19 0 0 0 11.17-2.23 25.58 25.58 0 0 0 8.6-6.14A27.56 27.56 0 0 0 329 466a34 34 0 0 0 2-11.73 30.87 30.87 0 0 0-2-11.06 27.43 27.43 0 0 0-5.53-9 25.3 25.3 0 0 0-8.6-6 27.81 27.81 0 0 0-11.2-2.21 27.41 27.41 0 0 0-11.12 2.18 25.43 25.43 0 0 0-8.55 6 27.38 27.38 0 0 0-5.53 9 30.84 30.84 0 0 0-2 11z"/><path class="cls-1" d="M284.85 454.93a20.61 20.61 0 0 1 1.41-7.77 17.43 17.43 0 0 1 3.9-6 17.09 17.09 0 0 1 5.93-3.8 20.81 20.81 0 0 1 7.57-1.33 21.16 21.16 0 0 1 7.64 1.23 16.71 16.71 0 0 1 6 3.75 17.31 17.31 0 0 1 3.9 6 20.43 20.43 0 0 1 1.41 7.74 19.77 19.77 0 0 1-1.41 7.59 17.41 17.41 0 0 1-3.92 5.88 17.91 17.91 0 0 1-6 3.85 21.17 21.17 0 0 1-7.64 1.43 20.82 20.82 0 0 1-7.57-1.33 17 17 0 0 1-9.83-9.63 19.76 19.76 0 0 1-1.39-7.61zm6.64-.4a15.3 15.3 0 0 0 .88 5.28 12.38 12.38 0 0 0 2.49 4.17 11.57 11.57 0 0 0 3.85 2.77 12.06 12.06 0 0 0 5 1 12.23 12.23 0 0 0 5-1 11.51 11.51 0 0 0 3.89-2.75 12.4 12.4 0 0 0 2.49-4.17 15.31 15.31 0 0 0 .88-5.28 13.89 13.89 0 0 0-.88-5 12.34 12.34 0 0 0-2.49-4 11.39 11.39 0 0 0-3.87-2.72 12.52 12.52 0 0 0-5-1 12.33 12.33 0 0 0-5 1 11.44 11.44 0 0 0-3.85 2.72 12.32 12.32 0 0 0-2.49 4 13.88 13.88 0 0 0-.91 5z"/></g><circle cx="401" cy="399" r="325.8" fill="none" stroke="#fff" stroke-miterlimit="10" stroke-width="14.4" id="circle"/></svg>