<svg xmlns="http://www.w3.org/2000/svg" viewBox="0 0 800 800"><defs><style>.cls-2{fill:#333}.cls-3{fill:#669a41}.cls-5{fill:#0e98af}.cls-6{fill:#50823a}.cls-7{fill:#52803c}</style></defs><path fill="#fff" d="M-.33.33h800v800h-800z" id="Layer_3" data-name="Layer 3"/><g id="Layer_2" data-name="Layer 2"><path class="cls-2" d="M-.33 328.17h800v127.66h-800z"/><path class="cls-3" d="M-.33 453.7h800v19.15h-800zM97.1 350l-1.7 13.19c-7.87-.64-15.11-.85-21.91-.85-.43 3.83-1.49 12.34-3 26q-2.55 23.94-3.19 42.13h-17q1.28-8.94 5.11-42.13a821.46 821.46 0 0 0 2.55-26c-5.53 0-13.19.43-22.77 1.06L37.1 350h60z"/><path class="cls-3" d="M122.2 377l-4.47 13a31.65 31.65 0 0 0-7.66-1.06c-6.6 0-10.43 3.62-11.28 11.06-1.28 11.06-2.13 21.28-2.77 30.21l-13.83.64c2.57-19.14 3.81-32.12 3.81-38.71a128.71 128.71 0 0 0-.85-14.26L99 376.39c.21 2.34.43 4.89.43 7.23h.85c3.83-5.32 8.3-8.09 13.83-8.09a43.9 43.9 0 0 1 8.09 1.47zM164.76 375.12q-4.47 30-4.47 41.49a96.88 96.88 0 0 0 .85 13l-13.62 1.49c-.21-3-.43-6.6-.43-10.64h-.85c-4 7.45-10.21 11.28-18.3 11.28-4.68 0-8.09-1.7-10.43-5.32-2.34-3.4-3.62-8.3-3.62-14.26a34.76 34.76 0 0 1 9.15-23.62c6.17-7 15.53-10.64 28.51-11.06l2.34-1.7zm-14.26 11.27c-7.66 0-13.4 2.34-17 6.81s-5.53 10.43-5.53 17.87q0 10.21 6.38 10.21c3.4 0 6.38-2.34 9.15-7.23a45 45 0 0 0 5.32-13.83 91 91 0 0 0 1.68-13.83zM188.8 376.61q0 1.6-1.28 11.49t-1.91 16c-.85 7.66-1.49 16.38-2.13 26.38l-14 .64c.64-4.89 1.91-13.83 3.4-26.81.64-7 1.06-13.62 1.06-19.57a52 52 0 0 0-.21-6.17zm4.26-16.81a10.63 10.63 0 0 1-3 7.45 9.49 9.49 0 0 1-7.45 3c-2.34 0-4-.64-5.11-2.13a7.62 7.62 0 0 1-1.91-5.11 10.63 10.63 0 0 1 3-7.45 9.49 9.49 0 0 1 7.45-3c4.67.22 7.01 2.56 7.01 7.24zM245 392.35a178.51 178.51 0 0 1-1.49 18.3 179.76 179.76 0 0 0-1.51 19.57l-14.26.64c0-1.7.64-7 1.91-15.74s1.91-14.89 1.91-18.51c0-3.83-.64-6.6-1.7-8.09s-3-2.13-5.53-2.13c-3.19 0-6.38 2.13-9.36 6.6a34.81 34.81 0 0 0-5.53 16.17c-.85 7.87-1.49 15.11-1.91 21.49l-13.83.64c2.55-19.15 3.83-32.13 3.83-38.72a128.71 128.71 0 0 0-.85-14.26l13.83-1.49c.21 3.19.43 6.81.43 11.06h.85q6.38-11.49 19.15-11.49c9.13-.39 14.06 4.9 14.06 15.96z"/><path d="M336.24 350l-1.7 13.19c-7.87-.64-15.11-.85-21.91-.85-.43 3.83-1.49 12.34-3 26q-2.55 23.94-3.19 42.13h-17q1.28-8.94 5.11-42.13a821.46 821.46 0 0 0 2.55-26c-5.53 0-13.19.43-22.77 1.06l1.91-13.4h60z" fill="#e6e7e8"/><path class="cls-5" d="M613.05 350l-1.7 13.19c-7.87-.64-15.11-.85-21.91-.85-.43 3.83-1.49 12.34-3 26q-2.55 23.94-3.19 42.13h-17q1.28-8.94 5.11-42.13a821.46 821.46 0 0 0 2.55-26c-5.53 0-13.19.43-22.77 1.06l1.91-13.4h60z"/><path class="cls-5" d="M645.39 389.16c0 11.06-11.91 16.81-35.53 17.23 0 4.89.85 8.51 2.77 10.85s4.89 3.62 9.57 3.62c6 0 12.34-1.91 18.94-5.74l-1.7 11.06c-5.53 3.83-12.55 5.74-20.85 5.74-7.45 0-13.19-2.34-16.81-6.81s-5.32-10.43-5.32-18.09c0-9.57 3-17.45 9.15-23.19a30.07 30.07 0 0 1 21.49-8.72c5.74 0 10.21 1.28 13.4 3.62a12.63 12.63 0 0 1 4.89 10.43zm-12.34 1.06c0-3.62-2.77-5.32-8.3-5.32a13.46 13.46 0 0 0-8.94 3.4 16.54 16.54 0 0 0-5.53 10c15.33-.42 22.77-2.97 22.77-8.08zM699.86 392.35a178.51 178.51 0 0 1-1.49 18.3 179.76 179.76 0 0 0-1.49 19.57l-14.26.64c0-1.7.64-7 1.91-15.74s1.91-14.89 1.91-18.51c0-3.83-.64-6.6-1.7-8.09s-3-2.13-5.53-2.13c-3.19 0-6.38 2.13-9.36 6.6a34.81 34.81 0 0 0-5.53 16.17c-.85 7.87-1.49 15.11-1.91 21.49l-13.83.64c2.55-19.15 3.83-32.13 3.83-38.72a128.71 128.71 0 0 0-.85-14.26l13.83-1.49c.21 3.19.43 6.81.43 11.06h.85q6.38-11.49 19.15-11.49 14.04-.63 14.04 15.96zM763.05 351.93c0 1.06-.64 4.89-1.91 11.91s-2.34 15.32-3.4 24.89a243.18 243.18 0 0 0-1.49 27c0 4.89.21 9.79.43 14.26l-12.77.64a78.31 78.31 0 0 1-.64-10.85h-.64c-4.47 7.66-10.85 11.49-19.36 11.49-5.53 0-9.57-1.91-12.55-5.74s-4.47-9.15-4.47-15.53c0-9.57 2.55-17.66 7.66-24.47a24.15 24.15 0 0 1 20.21-10.21c4.89 0 8.94 1.28 11.49 3.62h.85c.64-7.66 1.28-16.81 1.7-27zm-17 36.38a15.53 15.53 0 0 0-8.72-2.55c-5.53 0-9.79 2.13-12.55 6.38a27.32 27.32 0 0 0-4.26 15.11c0 9.36 3 13.83 8.94 13.83 3.62 0 6.81-2.34 10-7a36.85 36.85 0 0 0 5.54-15.56z"/><ellipse class="cls-2" cx="432.63" cy="399.16" rx="91.28" ry="79.15"/><path class="cls-6" d="M427.73 466.39c-.64.43.64-.85.64-2.13.21-1.28.43-17.23.85-20.21.21-2.34 1.28-9.57 1.28-12.55 0-.43 0-.21-.21-.21 0 0-.21-.21 0-.21a.21.21 0 0 0 .21-.21l-.43-.21s.21-.43.21-.21c.43.21.21 0 .43 0l-.21-.21.21-.21c.21 0 .85 0 1.06.21 0 0 .21.21.21 0a.66.66 0 0 1 .43-.21l-.21.43a2.63 2.63 0 0 0 .64.43v.21h-.43l.43.21c0 .21-.21.21-.21.43a.74.74 0 0 1-.43.21c0 .43-.21 1.06-.21 1.49-.21 1.06-1.06 11.49-1.28 14.89 0 3.4-.85 15.32-.85 16.17a9.44 9.44 0 0 0 .43 2.77c.21.43-.85-.43-1.49-.43-.21-.45-.64-.84-1.07-.45z"/><path class="cls-7" d="M430.71 430.65c0 .21 0 .64-.85.85a6.34 6.34 0 0 0-2.34 1.49 22.51 22.51 0 0 0-6 7.45 5.89 5.89 0 0 1-.21-2.77c-1.7 1.7-4 3-5.11 5.11v-2.55c-1.49.43-3.83 3.83-4 5.32a5.24 5.24 0 0 1-.2-2.55 21.36 21.36 0 0 0-4.89 4.89c-.21-.85-.85-1.7-.85-2.55-6.6 1.06-8.94 4.89-10.43 10.21-.85-2.55.21-4.89 1.7-7 1.7-2.34 4.47-3.4 6-4.89a12.28 12.28 0 0 1-3-.64c1.28-.64 2.34-1.7 3.62-2.34 1.49-.85 3.19-.43 4.68-.85a9.41 9.41 0 0 1-3.19-1.06c2.77 0 5.32-1.91 8.09-2.34a14.48 14.48 0 0 1-3.19-.43c2.13-.21 4.26 0 6-.64a2 2 0 0 1-2.13-1.28c2.34.21 4.68-.64 7-.85a16.87 16.87 0 0 1-1.91-.85c1.49.43 3.4-.43 5.11-.85s4.26.21 5.11 0zM432.41 431.07c-.43.21-.43.43.64.64.64.21 1.49 1.28 1.91 1.7a24 24 0 0 1 4.47 7.45 7.54 7.54 0 0 0 .64-2.34c1.28 1.7 3.19 3.19 4 5.11a9 9 0 0 1 .43-2.34c1.28.64 3 3.83 3 5.32a4.1 4.1 0 0 0 .64-2.13 27.69 27.69 0 0 1 3.83 4.89 4.05 4.05 0 0 0 1.06-2.13c6 1.91 7.45 7.45 10 10.21-.21-2.13-2.13-7-3.83-8.72-1.7-1.49-2.34-1.28-3.62-3a11.24 11.24 0 0 0 2.77-.21 31.78 31.78 0 0 0-3-2.55c-1.28-.85-3-.85-4-1.49a12.56 12.56 0 0 0 3-.43c-2.55-.43-4.68-2.34-7-3.19a7 7 0 0 0 3 0c-1.91-.43-3.83-.64-5.32-1.49a2.47 2.47 0 0 0 2.13-.85c-2.13-.21-4.26-1.28-6.38-1.7a5.09 5.09 0 0 0 1.91-.64 11.12 11.12 0 0 1-4.47-1.49c-1.49-.64-3.83-.43-4.68-.64z"/><path class="cls-7" d="M430.5 430.65c-2.34-.64-6-.43-8.3-.43s-5.32.21-7.45 1.28A2.25 2.25 0 0 1 416 430c-.85 0-1.7.64-2.77.85a14.91 14.91 0 0 1-3 .64c0-.43.85-.64 1.06-.85a2.56 2.56 0 0 0 1.06-1.06 19 19 0 0 1-6.17 1.91c1.28-.43 2.13-1.91 3.62-1.91a22.26 22.26 0 0 0-3.62.85c-.85.21-1.49.43-2.34.64-.64 0-1.28.43-1.7.21.85-.43 2.34-1.49 2.55-2.34-.43.21-1.06.43-1.49.64-.64.21-1.28.21-1.7.43-1.06.21-2.34 0-3.4.21.43-.43 1.7-1.28 1.49-1.91a18 18 0 0 1-3.62 1.06 7.84 7.84 0 0 1-3.19-.21 6 6 0 0 0 3-2.13c-1.7 1.06-4 0-6 0 .21-.21.85-.43 1.06-.64a7 7 0 0 1-3.62-.85 3.43 3.43 0 0 0 1.49-.85c-.64.43-1.91.21-2.55.21s-2.34 0-2.77-.64a22.61 22.61 0 0 1 2.34-1.91 10.25 10.25 0 0 1-2.55 0 10.51 10.51 0 0 1-3.4-1.06c.43-.21 1.49-.43 1.7-.85a5.41 5.41 0 0 1-3.19-.64c-1.06-.64-6-3-6.6-4 .85.64 6.17 1.91 7.23 2.13a3.62 3.62 0 0 1 1.49.21c.43.21.64.43 1.06.43a2.43 2.43 0 0 0-.64-1.28 24.31 24.31 0 0 1 5.53 1.91c-.21-.85-1.06-1.49-1.28-2.34a4.28 4.28 0 0 0 1.7.85 12.64 12.64 0 0 0 1.7.85 4.58 4.58 0 0 1 1.7 0c.64.21.85.85 1.28 1.06 0-.64-.64-1.28-1.06-1.7 1.91.43 4.68 1.06 6 2.77a3.94 3.94 0 0 0-.43-1.49c-.21-.64-1.06-1.28-1.06-1.91a17.58 17.58 0 0 1 2.77 1.49 4.28 4.28 0 0 1 1.7.85c.43.21.64.64 1.06.85 0-.85-.85-1.7-1.28-2.55a21.26 21.26 0 0 0 3 1.7 6.37 6.37 0 0 1 1.7.85c.43.21.64.64 1.06.85a10.69 10.69 0 0 0-1.7-2.55c1.7 1.49 3.83 2.13 5.53 3.83-.43-1.06-1.06-1.91-1.49-3a12.8 12.8 0 0 0 2.77 1.91c.64.43 1.28.64 1.91 1.06.43.21.64.85.85 1.06 0-.64-.64-1.49-.85-2.13.85.64 1.49 1.28 2.34 1.91.64.43 1.06.85 1.7 1.28l.85.85c-.21-.64-.64-1.28-.85-1.91a6.37 6.37 0 0 0 3.19 2.55 20.42 20.42 0 0 0 5.74 2.77c1.06.21 1.91.64 3 .85.85.21 2.55.21 3.19.85zM432.63 430.65c2.55 0 6-1.06 8.3-1.49a20.6 20.6 0 0 0 7-3 2.63 2.63 0 0 1-.85 1.7c.85-.21 1.49-1.06 2.55-1.49a16 16 0 0 1 2.77-1.28c0 .43-.64.85-.85 1.06-.21.43-.64.85-.85 1.28a15.75 15.75 0 0 1 5.53-3.19c-1.06.85-1.7 2.34-3 2.77 1.06-.64 2.34-.85 3.4-1.49a6.66 6.66 0 0 1 2.13-1.06 4.06 4.06 0 0 1 1.7-.64 4.59 4.59 0 0 0-1.91 3 5.64 5.64 0 0 0 1.28-1.06c.64-.21 1.06-.64 1.7-.85 1.06-.43 2.13-.64 3.19-1.06-.21.64-1.28 1.7-.85 2.34a25.33 25.33 0 0 1 3.19-1.91 8.27 8.27 0 0 1 3.19-.43 5 5 0 0 0-2.34 2.77c1.49-1.28 4-.85 5.74-1.28a4.64 4.64 0 0 1-1.06.85 6.94 6.94 0 0 1 3.62 0 7.22 7.22 0 0 0-1.28 1.28c.64-.64 1.7-.64 2.55-.85.64 0 2.34-.43 2.77 0a16.24 16.24 0 0 0-1.7 2.34 11.22 11.22 0 0 1 2.55-.64 10.38 10.38 0 0 1 3.62.21c-.43.21-1.28.64-1.49 1.28a8.11 8.11 0 0 1 3.19-.21c1.28.43 6.6 1.49 7.45 2.34-1.06-.43-6.38-.43-7.45-.21-.43 0-1.06.21-1.49.21s-.85-.21-1.28-.21a2.56 2.56 0 0 0 1.06 1.06 56.06 56.06 0 0 1-6-.43c.43.85 1.28 1.28 1.91 1.91-.64-.21-1.28-.21-1.91-.43-.43 0-1.28-.43-1.7-.43-.64 0-.85.64-1.7.43a3.18 3.18 0 0 1-1.49-.64c0 .64 1.06 1.06 1.49 1.28-1.91 0-4.89 0-6.6-1.28a4.45 4.45 0 0 0 .85 1.28c.43.43 1.28 1.06 1.49 1.7a15.67 15.67 0 0 1-3-.85c-.64-.21-1.28-.21-1.91-.43a3 3 0 0 0-1.28-.43c.21.85 1.28 1.49 1.7 2.13-1.06-.43-2.13-.64-3.4-1.06-.64-.21-1.28-.21-1.7-.43s-.85-.64-1.28-.64l2.13 2.13c-2.13-1.06-4.26-1.28-6.38-2.34.64.85 1.49 1.7 2.13 2.55l-3.06-1.27a8.11 8.11 0 0 1-2.13-.64c-.43-.21-.64-.64-1.06-.85.21.64 1.06 1.28 1.28 1.7-.85-.43-1.7-.85-2.77-1.28-.64-.21-1.28-.64-1.91-.85-.43-.21-.64-.64-1.06-.64.43.64.85 1.06 1.28 1.7-.85-1.06-2.34-1.28-3.62-1.91a28.26 28.26 0 0 0-6.38-1.28c-1.06 0-2.13-.21-3-.21s-2.77.43-3.4 0zM431.14 430a60 60 0 0 1-3.83-6.17 27.75 27.75 0 0 1-2.77-7.66c-.21-.43-.21-.85-.43-1.28-.21.43-.21 1.28-.64 1.7-.21-.85-.64-2.13-.85-3.19-.21-.64 0-2.55-.43-3a8.11 8.11 0 0 1-.64 2.13 52.7 52.7 0 0 1-.64-5.74c-.43.64-.43 1.28-1.06 1.7a15.94 15.94 0 0 0-.85-3.4c-.21-.85 0-1.91-.43-2.77-.43.43-.64 1.49-1.06 1.91a8.82 8.82 0 0 0-.43-3.4c-.43-.85-.64-2.34-1.7-2.77-.21 1.06 0 1.91-.43 2.77 0-1.49.21-2.34-.64-3.62-.64-1.06-.85-2.13-1.49-3.19a7.15 7.15 0 0 1-1.06 3c0-.64.43-1.06.43-1.7a4 4 0 0 0-.43-1.7 12.06 12.06 0 0 0-1.7-2.77c-.21.85 0 2.13-1.06 2.55 0-.43.21-1.28.21-1.7a3.94 3.94 0 0 0-.43-1.49 15.87 15.87 0 0 0-1.49-2.55 5.89 5.89 0 0 1-.64 2.77c.43-.64.64-2.77-.21-3.4 0 .21-.21.43-.21.64 0-1.06-1.28-2.55-2.13-3.19a3.59 3.59 0 0 1-.64 2.13c0-1.49.21-2.13-.64-3.4a1.28 1.28 0 0 1-.21.85c-.85-1.06-1.49-2.77-2.77-3.4 0 .85.43 1.91 0 2.77-.64-.85-.21-2.34-1.06-3.19v.85c-1.06-.64-1.28-2.34-2.55-3-.21.64-.21 1.49-.43 2.13a5.8 5.8 0 0 0-1.28-2.55 10 10 0 0 1-1.28-1.91 11.46 11.46 0 0 0-.64 2.13 2.72 2.72 0 0 0-1.49-2.77c-.21-.21-.21 0-.43-.21s-.43-.64-.64-.85a8 8 0 0 0-1.49-1.28c0 .43-.21 1.28 0 1.7a16.36 16.36 0 0 0-3.83-3.83 3.16 3.16 0 0 1 .21 1.28 8.65 8.65 0 0 0-2.13-1.91c-1.06-.64-2.13-1.28-3-1.91-1.7-1.28-3.62-2.13-5.32-3.19 0 .64 1.06 1.49 1.49 2.13a22.54 22.54 0 0 0 2.13 2.55 17.41 17.41 0 0 0 5.32 4.26c-.21.21-.64.21-.85.43.21 1.06 1.91 1.7 2.77 2.55-.21 0-.64.21-.85 0 0 .64 1.28 1.28 1.7 1.49-.64 0-1.28-.21-1.91-.21.85 1.06 1.28 2.13 2.55 2.77-.43 0-.64 0-.85.21a7.51 7.51 0 0 0 2.77 1.7 6.21 6.21 0 0 0-1.91.43c.43.64 1.49 1.06 1.91 1.7-.21 0-.43.21-.64.21a14.67 14.67 0 0 0 3.19 1.49 10.25 10.25 0 0 1-2.55 0 11.37 11.37 0 0 0 2.77 2.77 2.7 2.7 0 0 0-1.28-.21c.21.64 1.91 1.49 2.55 1.7-.85.21-1.49.21-2.13.43a16.25 16.25 0 0 0 1.91 1.91 8.89 8.89 0 0 0 2.13.85c-.85 0-1.49.64-2.34.43a17.28 17.28 0 0 0 1.91 2.13c.64.43 1.91.85 2.13 1.28a1.91 1.91 0 0 1-2.34.21 6.48 6.48 0 0 0 2.77 1.91 1 1 0 0 0-.64.85 9.6 9.6 0 0 1 2.34.64 4.1 4.1 0 0 1-2.77 0c1.06 1.91 3.4 3.62 5.53 3.4-.85 0-1.7.43-2.55.43.85 1.28 3.62 3 5.32 2.77a5.08 5.08 0 0 0-1.91.43 5.57 5.57 0 0 0 3.83 1.91H405c.21.64 2.34 1.06 3 1.06-.64.21-1.28 0-1.7.43.64 1.28 4 2.34 5.32 2.34-.64.21-1.49-.21-2.13 0A16.73 16.73 0 0 0 415 416a7.22 7.22 0 0 0-1.28 1.28 48.24 48.24 0 0 1 5.32 1.28 1.75 1.75 0 0 0-1.28.85c1.28 0 4 0 5.11 1.06a2.28 2.28 0 0 0-1.28.43 19.45 19.45 0 0 1 3 1.49 10 10 0 0 1 2.55 1.91c.85.85 1.49 1.7 2.34 2.55.64.85 1.06 1.7 2.13 2.13-.64 1.28-.64 1.28-.43 1.06M432.41 430.22a36.73 36.73 0 0 1 6-4c2.34-1.49 4.89-2.13 7.66-3.19.43-.21.85-.21 1.28-.43-.43-.21-1.28-.21-1.7-.64.85-.21 2.13-.64 3.19-.85.64-.21 2.55-.21 3-.64a7.56 7.56 0 0 1-2.13-.43c1.91-.21 3.83-.85 5.53-.85-.64-.43-1.28-.43-1.7-1.06a9.11 9.11 0 0 0 3.4-1.06c.85-.21 1.91 0 2.77-.43-.43-.43-1.49-.64-2.13-1.06a6.12 6.12 0 0 0 3.4-.64c.85-.43 2.34-.85 2.55-1.7-1.06-.21-1.91.21-3-.43 1.49 0 2.34 0 3.4-.85 1.06-.64 2.13-.85 3-1.49a17.73 17.73 0 0 1-3.19-.85 5 5 0 0 1 1.7.43 4 4 0 0 0 1.7-.43 10.69 10.69 0 0 0 2.55-1.7c-.85-.21-2.13 0-2.55-.85.43 0 1.28.21 1.7 0 .64 0 .85-.21 1.49-.64a17.75 17.75 0 0 0 2.55-1.7 5.89 5.89 0 0 1-2.77-.64c.64.21 2.77.43 3.4-.21-.21 0-.43-.21-.64-.21 1.06 0 2.55-1.49 3-2.13a3.59 3.59 0 0 1-2.13-.64c1.49 0 2.13 0 3.19-.85H476c1.06-.85 2.77-1.49 3.4-2.77-.85 0-1.91.43-2.77 0 .85-.64 2.34-.21 3.19-1.06H479c.64-1.06 2.34-1.49 2.77-2.55-.64-.21-1.49-.21-2.13-.43a4.54 4.54 0 0 0 2.55-1.49 15 15 0 0 1 1.91-1.49c-.64-.43-1.7-.21-2.34-.64a3.64 3.64 0 0 0 2.77-1.49c.21-.21 0-.21.21-.43s.64-.43.64-.64a8 8 0 0 0 1.28-1.49H485c1.49-.85 2.55-2.55 3.62-4a3.16 3.16 0 0 1-1.28.21 6.65 6.65 0 0 0 1.91-2.34 25.33 25.33 0 0 1 1.91-3.19 45.7 45.7 0 0 0 3-5.53 4.84 4.84 0 0 0-1.91 1.7c-.85.64-1.7 1.49-2.55 2.13a16.85 16.85 0 0 0-4 5.53c-.21-.21-.21-.64-.43-.85-.85.21-1.7 2.13-2.34 2.77 0-.21-.21-.64-.21-.85-.64 0-1.06 1.28-1.49 1.7a5.78 5.78 0 0 0 0-1.91 8.59 8.59 0 0 0-2.77 2.77c0-.43 0-.64-.21-.85a6.86 6.86 0 0 0-1.7 3 6.21 6.21 0 0 0-.43-1.91c-.64.43-1.06 1.49-1.7 2.13 0-.21-.21-.43-.21-.64a8.4 8.4 0 0 0-1.28 3.19c0-.85-.21-1.7-.21-2.55a11.2 11.2 0 0 0-2.55 3c0-.43.21-.85.21-1.28a4.54 4.54 0 0 0-1.49 2.55c-.21-.85-.21-1.49-.43-2.13a9.15 9.15 0 0 0-1.91 2.13c-.43.64-.43 1.49-.85 2.13 0-.85-.64-1.49-.64-2.34a6.24 6.24 0 0 0-1.91 2.13c-.43.64-.64 1.91-1.28 2.13-.64-.43-.64-1.7-.43-2.34a5.82 5.82 0 0 0-1.7 3c0-.21-.43-.43-.85-.43a7.54 7.54 0 0 1-.64 2.34 6.12 6.12 0 0 1-.21-2.77 6.5 6.5 0 0 0-3.19 5.74c0-.85-.43-1.7-.43-2.55-1.28.85-3 3.83-2.77 5.32a3 3 0 0 0-.64-1.91 5.57 5.57 0 0 0-1.91 3.83v-1.06c-.64.21-1.06 2.34-1.06 3-.21-.64 0-1.28-.43-1.7-1.28.85-2.34 4-2.13 5.32-.21-.64 0-1.49-.21-2.13a23.88 23.88 0 0 0-1.7 5.53c-.43-.21-.64-.85-1.28-1.06-.43 1.7-.64 3.62-1.06 5.32a1.57 1.57 0 0 0-1.06-1.28c0 1.28.21 4-.85 5.11a2.28 2.28 0 0 0-.43-1.28c0 .85-1.06 2.13-1.49 3a10.69 10.69 0 0 1-1.7 2.55 25.5 25.5 0 0 1-2.55 2.34 20.06 20.06 0 0 0-2.13 2.13h1.49"/><path class="cls-6" d="M431.14 430.22a2.14 2.14 0 0 1 .64-.21c-.21-5.53 3.62-10 6.17-14.47a5.58 5.58 0 0 0-1.91 1.06c1.7-1.91 3-4.89 4-7a3.18 3.18 0 0 1-1.49.64c1.06-1.06 3-4 3-5.32-.85.21-1.28 1.06-2.34.85 1.49-.85 3.19-4.26 3-6-.64 0-1.06.85-1.7 1.06a8.33 8.33 0 0 0 1.7-2.13c.43-1.06.43-2.13.85-3-.43 0-1.06.64-2.13.85a5.81 5.81 0 0 0 2.55-5.11c-.85 0-1.49.85-2.34 1.06.64-1.7 1.7-3.19 2.13-4.89-.64.21-1.28.85-2.13.64a5.74 5.74 0 0 0 2.13-4.68c-.85 0-1.06 1.06-2.13.85 1.28-1.7 3-3.4 1.91-5.53-.43.43-.64 1.06-1.28 1.28 0-.85 1.06-1.49.64-2.55a2.12 2.12 0 0 0-1.06.85 27 27 0 0 0 1.28-3.83 4 4 0 0 1-2.55 1.49c1.28-1.28 3-4.68 2.34-6.6a6.63 6.63 0 0 0-1.49 1.91 4.86 4.86 0 0 1-2.13 1.56c.85-1.7 2.77-2.55 3-4.89-.21.21-.64.21-.85.43 1.06-1.06.85-1.91.64-3.4-.64.85-2.13 2.77-3.4 2.55 1.7-1.49 3.4-2.77 3.4-5.11-.21.43-.43.43-1.06.85.43-.64.21-2.34 0-3.19a6.76 6.76 0 0 1-2.55 2.34c.43-1.06 1.28-1.7 1.7-2.77a7 7 0 0 0 .21-3.62c-.64.21-.85.85-1.28 1.06a7.56 7.56 0 0 1-1.91.85c1.91-1.91 2.13-3.62 1.7-6.17a5 5 0 0 1-2.34 2.34c1.49-1.49 1.06-4.26.43-6-.21.43-.85.85-1.28 1.28a13.09 13.09 0 0 0 .43-4c-.21.64-.85.85-1.49 1.28 1.7-2.55.21-4.47-.43-7-.43-2.34-.21-5.32-1.06-7.23-.21 1.06-.85 2.34-1.06 3.4a7 7 0 0 0-.21 3.62c.21 2.34-.64 4-.43 6.38.43.64.21 1.49 0 1.06s-.85-.85-1.06-1.49c-.21 1.7.64 3.62 1.06 5.11a4.51 4.51 0 0 1-1.49-.64c0 1.7-.21 4 .43 5.74a3.32 3.32 0 0 1-1.7-1.28c.21 1.28.64 4.68 1.7 5.74-1.7-.64-2.34-1.28-2.55-1.7 0 1.06.64 4.89 1.7 6-1.28 0-1.49-.21-2.34-1.28a6.43 6.43 0 0 0 1.28 5.53c-.85 0-1.49-1.06-2.34-1.7a8 8 0 0 0 2.34 6.17c-1.49.21-2.34-.64-3.4-1.49 0 1.28-.21 3 .64 3.83a3.74 3.74 0 0 1-1.06-.85 10.79 10.79 0 0 0 1.91 3.4c-1.06-.21-2.13-1.49-2.77-2.34.64 1.06.64 3 1.06 4.26s.64 2.77 1.7 3.83a18.37 18.37 0 0 1-3.4-2.13c-.21 2.55.64 4.68 2.77 5.74a4.61 4.61 0 0 1-3-1.06 2 2 0 0 0 .43 1.49h-.64c-.43 1.91 2.55 3.4 3.62 4.47a16.05 16.05 0 0 1-3.62-2.13 10.38 10.38 0 0 0 .21 3.62c.43 1.06 1.7 1.7 1.91 2.55a17 17 0 0 1-3.4-1.7c0 2.34 1.49 4.68 2.77 6.38A7.46 7.46 0 0 1 422 400c-.85 2.55 1.91 4.89 3.62 6.17a6.27 6.27 0 0 1-2.77-1.06c0 2.34 2.13 3.4 3.19 5.32a9.94 9.94 0 0 1-2.13-1.06c.43 1.06.43 2.13 1.06 3a31.76 31.76 0 0 0 2.55 3 4.46 4.46 0 0 1-2.34-.85 21.58 21.58 0 0 1 1.91 2.77c.64.85 1.49 1.06 1.91 1.91-.43-.21-.85 0-1.49-.43 1.49 1.49 2.55 4.47 3 6.38.85-.64.21 4.47.64 5.11z"/><path d="M430.93 486.82c-50 0-94.26-40.64-94.47-86.81-.21-21.49 8.51-42.13 24.47-58.09a99.55 99.55 0 0 1 70-28.72c24.68 0 47.66 7.45 64.89 21.06C516 350 526.67 372.78 526.67 400a80 80 0 0 1-23.83 58.51c-17.84 18.1-44.04 28.31-71.91 28.31zm-1.06-157.45c-36.17 0-78.09 30.21-78.09 69.36 0 39.57 34.89 71.7 77.87 71.7h.64c44.68 0 81.06-32.13 81.06-71.7 0-42.77-41.7-69.36-80.21-69.36z" fill="#e6e6e5"/><path class="cls-2" d="M430.93 314.69c24.26 0 47 7.45 63.83 20.64C514.54 350.86 525 373.2 525.18 400a78.34 78.34 0 0 1-23.4 57.45c-17.66 17.66-43.62 27.87-70.85 27.87-49.15 0-92.55-39.79-92.77-85.32-.21-21.06 8.3-41.49 24-57 17.66-18.09 42.77-28.3 68.72-28.3m-.64 157.45c45.53 0 82.55-33 82.55-73.4 0-43.83-42.55-70.85-81.91-70.85h-1.28c-37 0-79.57 31.06-79.57 70.85 0 40.43 35.74 73.4 79.57 73.4h.64m.64-160.64c-26.81 0-52.77 10.64-71.06 29.36A83.45 83.45 0 0 0 335 400.22c.21 47 45.11 88.51 96 88.51 28.3 0 54.89-10.43 73.19-28.94 16-16 24.26-36.6 24.26-59.79-.21-27.66-11.06-50.85-31.49-67-17.66-14-41.06-21.49-66-21.49zm-.64 157.45h-.64c-42.13 0-76.38-31.49-76.38-70.21 0-31.28 33.4-67.66 76.38-67.66h1.28c37.87 0 78.72 26 78.72 67.66.21 38.72-35.53 70.21-79.36 70.21z"/></g></svg>